<?xml version="1.0" encoding="UTF-8"?> <!-- Generator: Adobe Illustrator 21.1.0, SVG Export Plug-In . SVG Version: 6.00 Build 0) --> <svg xmlns="http://www.w3.org/2000/svg" xmlns:xlink="http://www.w3.org/1999/xlink" version="1.1" id="RED_-_INNOVATION_-_MCC" x="0px" y="0px" viewBox="0 0 538.7 169.6" style="enable-background:new 0 0 538.7 169.6;" xml:space="preserve"> <style type="text/css"> .st0{fill:#EF373E;} .st1{fill:#B4B2B4;} .st2{fill:#26225E;} </style> <g> <path class="st0" d="M18.6,75.5c4.7,4.5,9.4,8.2,14.3,11.4c3,2,6.3,3.7,9.6,5.1c-2.8-2.4-5.1-5.2-7-8.4c-2.4-4-4-8.4-4.6-12.9 c-2.8-13.9-2.1-36.6,17-65.4l2.9-4.4c-0.1-0.3-0.1-0.6-0.2-0.8c-7.2,1.7-14,4.5-20.3,8.5c4.3,6.4,3.5,14.8-2,20.2 c-5.4,5.4-13.8,6.2-20.1,2C4.4,36.9,1.7,43.6,0,50.6c7.4,1.5,12.8,8,12.8,15.7c0,0.9-0.1,1.9-0.3,2.8 C14.8,71.7,16.8,73.7,18.6,75.5z"></path> <path class="st1" d="M101.9,8.2C95.7,4.4,89.1,1.6,82.1,0c-1.4,7.6-7.9,13.1-15.8,13.1c-5.6,0-10.8-3-13.7-7.8 c-4,6.1-7.8,12.1-10.9,18.7c-2.8,5.9-4.9,11.5-6.4,17.1c-0.9,3.5-1.5,7.1-1.9,10.7c2.9-6.7,7.8-12.4,14.2-16.2 c0.3-0.2,0.7-0.4,1-0.5l0.5-0.3c9.9-5.8,27-11.9,52.9-8C97.9,21.3,97.8,13.8,101.9,8.2z"></path> <path class="st1" d="M39.7,122.5c7.2-2.7,14.1-5.5,20.8-9c5.7-3.1,10.7-6.4,15.2-10.1c2.8-2.3,5.4-4.8,7.8-7.6 c-5.8,3.5-12.5,5.2-19.2,4.9c-1.3-0.1-2.6-0.2-4-0.4c-11.9-1.3-30-6.9-49.1-26.8C8.9,77.9,4.8,81,0,82c1.7,7,4.4,13.7,8.2,19.9 c6.3-4.2,14.7-3.4,20.1,2c5.5,5.5,6.3,13.9,2,20.2c0.5,0.3,1.1,0.7,1.6,1C35.3,124,39.3,122.6,39.7,122.5z"></path> <path class="st1" d="M68.9,30.8c1.8,0.2,3.6,0.5,5.3,0.9c6,1.5,11.5,4.6,16,9c19,17,23.8,43.8,25,58.6c3.3,0,6.5,1.1,9.1,3 c3.9-6.2,6.7-13,8.4-20.1c-7.7-1.2-13.5-7.9-13.5-15.8c0-7.9,5.7-14.6,13.5-15.8c-1.7-7.1-4.5-13.9-8.4-20.1 c0.1,0.2-3.3,1.8-3.6,1.9c-1.3,0.5-2.7,0.8-4.1,1c-1.4,0.1-2.8,0.1-4.2-0.1c-2.5-0.4-4.8-1.3-7.2-1.8c-2.4-0.5-4.9-0.9-7.3-1.3 c-6.5-0.9-12.4-1.1-18.2-0.8C76,29.5,72.4,30,68.9,30.8z"></path> <path class="st1" d="M109.5,85.3c-1.2-6.4-2.8-12.2-4.9-17.6c-1.3-3.4-2.9-6.7-4.8-9.8c1.2,5.4,1.2,11-0.2,16.3 c-0.6,2.4-1.5,4.9-2.7,7.2c-11.1,24.9-37.6,38-52.4,43.5l-7.5,2.9c4.4,2.1,9,3.7,13.7,4.8c1.4-7.6,7.9-13.1,15.8-13.1 c7.8,0,14.4,5.5,15.8,13.1c7-1.6,13.6-4.4,19.7-8.2c-4.5-6.4-3.8-14.9,1.8-20.5c2.1-2.1,4.7-3.5,7.5-4.2 C110.8,94,110.2,89.5,109.5,85.3z"></path> <path class="st2" d="M175.8,158.6h-6.5l-1.3,4c-0.4,0.3-1.1,0.4-2,0.4c-1,0-1.5-0.1-2-0.4l6.2-18c0.5-0.2,1.4-0.3,2.3-0.3 c1,0,1.8,0.1,2.3,0.3l6.2,18c-0.4,0.2-1,0.4-2,0.4c-1,0-1.6-0.1-2-0.4L175.8,158.6z M174.8,155.4l-1-3c-0.5-1.6-0.9-3.5-1.2-5.3 h-0.2c-0.3,1.9-0.7,3.8-1.2,5.4l-1,3H174.8z M190.3,162.6c-0.4,0.2-1,0.3-1.9,0.3c-0.8,0-1.4-0.1-1.8-0.3v-18 c0.6-0.2,1.4-0.3,2.5-0.3c1.1,0,1.9,0.1,2.5,0.3l5,9c0.6,1.2,1.3,3.2,1.6,4.7h0.2v-13.7c0.4-0.2,0.9-0.3,1.8-0.3 c0.8,0,1.4,0.1,1.8,0.3v18c-0.5,0.2-1.3,0.3-2.4,0.3c-1.1,0-1.9-0.1-2.4-0.3l-5.3-9.5c-0.6-1.1-1.2-2.9-1.6-4.7h-0.2V162.6z M208.2,157.6c0.2,1.8,1.4,2.7,4,2.7c1.6,0,3.1-0.4,4-0.8c0.1,1-0.3,2.2-0.9,2.9c-0.8,0.5-2.3,0.9-4.1,0.9c-4.5,0-6.9-2.6-6.9-6.8 c0-4.3,2.6-7.1,6.6-7.1c3.8,0,5.5,2.3,5.5,5.7c0,0.8-0.2,1.8-0.4,2.4H208.2z M212.9,154.9c0.2-1.3-0.3-2.7-2.1-2.7 c-1.6,0-2.6,1-2.7,2.7H212.9z M222.4,145.5c0,1.5-0.9,2.3-2.2,2.3c-1.5,0-2.3-0.8-2.3-2.3c0-1.4,1-2.2,2.3-2.2 C221.5,143.3,222.4,144.1,222.4,145.5z M218.3,150.2c0.4-0.2,1-0.3,1.9-0.3c0.9,0,1.5,0.1,1.9,0.3v12.4c-0.3,0.2-1,0.3-1.9,0.3 c-0.9,0-1.5-0.1-1.9-0.3V150.2z M227.9,163.3c-2.6,0-3.3-1.7-3.3-4v-15c0.9-0.5,2.1-0.7,3.7-0.7v15.1c0,1,0.3,1.2,1.1,1.2 c0.6,0,1.1-0.2,1.6-0.5c0.1,1.1-0.2,2.5-0.7,3.2C229.6,163.1,228.9,163.3,227.9,163.3z M241,160.1c2.3,0,3.2-0.9,3.2-2.2 c0-3.8-8.6-1.8-8.6-8.3c0-3.7,2.4-5.6,6.4-5.6c1.7,0,3.2,0.4,4.5,1.1c0.6,0.9,0.8,2.4,0.7,3.6c-1.4-0.8-3.2-1.4-4.9-1.4 c-1.9,0-2.8,0.7-2.8,1.9c0,3.6,8.5,1.7,8.5,8.3c0,4.5-3.1,6-7,6c-1.9,0-3.7-0.4-5.1-1c-0.6-1-0.8-2.6-0.7-3.7 C236.7,159.5,239.1,160.1,241,160.1z M257.8,161.3c-0.5,1-1.6,2-3.7,2c-2.6,0-5.2-1.7-5.2-6.4c0-4.9,2.8-7.5,7.4-7.5 c2,0,3.7,0.5,5,1.4v18c-0.3,0.2-1,0.3-1.9,0.3s-1.5-0.1-1.9-0.3v-3.2c0-1.4,0.1-3.1,0.3-4.3H257.8z M257.8,152.8 c-0.4-0.2-0.9-0.3-1.5-0.3c-2.4,0-3.4,1.5-3.4,4c0,2.4,0.9,3.4,2.6,3.4c1.2,0,1.9-0.6,2.4-1.2V152.8z M272.2,161.3 c-0.6,1.2-1.8,2.1-4,2.1c-2,0-4.3-0.7-4.3-5v-7.9c0.9-0.5,2.1-0.8,3.7-0.8v8c0,1.4,0.4,2.2,1.9,2.2c1.2,0,2-0.5,2.5-1.1v-8.6 c0.4-0.2,1-0.3,1.9-0.3s1.5,0.1,1.9,0.3v12.3c-0.7,0.4-1.7,0.6-2.9,0.6l-0.4-1.8H272.2z M282.5,145.5c0,1.5-0.9,2.3-2.2,2.3 c-1.5,0-2.3-0.8-2.3-2.3c0-1.4,1-2.2,2.3-2.2C281.5,143.3,282.5,144.1,282.5,145.5z M278.3,150.2c0.4-0.2,1-0.3,1.9-0.3 c0.9,0,1.5,0.1,1.9,0.3v12.4c-0.3,0.2-1,0.3-1.9,0.3c-0.9,0-1.5-0.1-1.9-0.3V150.2z M291.5,149.5c0.5,0,0.9,0.1,1.2,0.2 c0.4,0.6,0.5,1.4,0.5,2.3c0,0.7-0.1,1.2-0.2,1.6c-0.5-0.3-1-0.4-1.8-0.4c-1.3,0-2.3,0.9-2.8,2.2v7.2c-0.3,0.2-1,0.3-1.9,0.3 c-0.9,0-1.5-0.1-1.9-0.3v-12.3c0.7-0.4,1.8-0.6,3-0.6l0.3,2.4h0.2C288.5,150.7,289.3,149.5,291.5,149.5z M296.8,157.6 c0.2,1.8,1.4,2.7,4,2.7c1.6,0,3.1-0.4,4-0.8c0.1,1-0.3,2.2-0.9,2.9c-0.8,0.5-2.3,0.9-4.1,0.9c-4.5,0-6.9-2.6-6.9-6.8 c0-4.3,2.6-7.1,6.6-7.1c3.8,0,5.5,2.3,5.5,5.7c0,0.8-0.2,1.8-0.4,2.4H296.8z M301.5,154.9c0.2-1.3-0.3-2.7-2.1-2.7 c-1.6,0-2.6,1-2.7,2.7H301.5z M311.2,144.7c1.4-0.3,3.5-0.5,5.4-0.5c5.2,0,8.3,1.8,8.3,6.3c0,4.6-3.2,6.6-7.1,6.6 c-0.8,0-2.1-0.1-2.8-0.2v5.6c-0.4,0.2-1,0.3-1.9,0.3c-0.9,0-1.6-0.1-2-0.3V144.7z M315.1,147.7v6c0.5,0.1,1.5,0.2,2.3,0.2 c2.3,0,3.7-0.9,3.7-3.1c0-2.3-1.5-3.2-4.1-3.2C316.3,147.5,315.7,147.6,315.1,147.7z M333,149.5c0.5,0,0.9,0.1,1.2,0.2 c0.4,0.6,0.5,1.4,0.5,2.3c0,0.7-0.1,1.2-0.2,1.6c-0.5-0.3-1-0.4-1.8-0.4c-1.3,0-2.3,0.9-2.8,2.2v7.2c-0.3,0.2-1,0.3-1.9,0.3 c-0.9,0-1.5-0.1-1.9-0.3v-12.3c0.7-0.4,1.8-0.6,3-0.6l0.3,2.4h0.2C330.1,150.7,330.9,149.5,333,149.5z M347.4,156.2 c0,4.6-2.4,7.1-6.4,7.1c-4.1,0-6.4-2.4-6.4-7.1c0-4.2,2.6-6.7,6.4-6.7C344.8,149.5,347.4,151.8,347.4,156.2z M340.9,160.3 c1.8,0,2.6-1.5,2.6-4c0-2.3-0.9-3.7-2.6-3.7c-1.7,0-2.6,1.4-2.6,3.7C338.4,158.8,339.2,160.3,340.9,160.3z M350.2,158.1 c-1.2-0.8-1.7-2.2-1.7-3.8c0-3.2,2.3-4.8,5.6-4.8c1.2,0,2.1,0.2,2.9,0.5h3.7c0.3,0.8,0.5,1.8,0.5,2.7h-1.9v0.1 c0.2,0.2,0.4,0.8,0.4,1.6c0,3-2.1,4.7-5.5,4.7c-0.6,0-1.2-0.1-1.4-0.2c-0.3,0.2-0.4,0.5-0.4,0.8c0,0.7,0.9,0.9,2.6,0.9 c3.7,0,6.3,0.7,6.3,4.1c0,3.5-2.7,4.9-7,4.9c-3.9,0-6.4-1.1-6.4-4.1c0-1.5,0.8-2.7,2-2.9v-0.2c-0.7-0.4-1.1-1.1-1.1-1.9 c0-1.2,0.6-2,1.5-2.2V158.1z M352.2,163.4c-0.6,0.3-0.9,0.9-0.9,1.5c0,1.4,1.4,1.8,3.2,1.8c2.1,0,3.2-0.5,3.2-1.8 c0-1-0.7-1.3-3.4-1.3C353.4,163.6,352.8,163.5,352.2,163.4z M354.1,156.4c1.4,0,2.1-0.8,2.1-2.1c0-1.3-0.7-2.1-2.1-2.1 c-1.4,0-2.2,0.8-2.2,2.1C352,155.6,352.7,156.4,354.1,156.4z M369.2,149.5c0.5,0,0.9,0.1,1.2,0.2c0.4,0.6,0.5,1.4,0.5,2.3 c0,0.7-0.1,1.2-0.2,1.6c-0.5-0.3-1-0.4-1.8-0.4c-1.3,0-2.3,0.9-2.8,2.2v7.2c-0.3,0.2-1,0.3-1.9,0.3c-0.9,0-1.5-0.1-1.9-0.3v-12.3 c0.7-0.4,1.8-0.6,3-0.6l0.3,2.4h0.2C366.2,150.7,367,149.5,369.2,149.5z M378.1,161.5c-0.6,1.1-1.8,1.9-3.6,1.9 c-2.3,0-4.2-1.1-4.2-4.1c0-3.1,2.3-4.4,5.3-4.4c0.8,0,1.6,0.1,2.3,0.3v-0.4c0-1.6-0.8-2.1-2.5-2.1c-1.5,0-3,0.4-4.1,1.1 c-0.3-1-0.2-2.6,0.4-3.4c0.9-0.5,2.5-0.8,4.4-0.8c3.7,0,5.5,1.3,5.5,5.1v4.5c0,0.8,0.4,1,0.9,1c0.4,0,0.8-0.1,1.1-0.3 c0.1,1-0.2,2.3-0.7,3c-0.5,0.4-1.3,0.6-2.1,0.6c-1.5,0-2.3-0.6-2.5-1.9H378.1z M378,157.7c-0.5-0.2-1.1-0.3-1.7-0.3 c-1.5,0-2.2,0.6-2.2,1.6c0,1,0.7,1.4,1.8,1.4c0.8,0,1.6-0.3,2.2-0.9V157.7z M388.4,162.6c-0.3,0.2-1,0.3-1.9,0.3 c-0.9,0-1.5-0.1-1.9-0.3v-12.3c0.7-0.4,1.8-0.6,3-0.6l0.2,2.1h0.2c0.6-1.3,1.9-2.4,4.2-2.4c1.5,0,3,0.4,3.7,2.2h0.2 c0.5-1.2,1.8-2.2,4.1-2.2c1.9,0,4.2,0.7,4.2,4.9v8.2c-0.3,0.2-1,0.3-1.9,0.3c-0.9,0-1.5-0.1-1.9-0.3v-7.5c0-1.3-0.4-2.2-1.9-2.2 c-1.3,0-2,0.7-2.5,1.5c0,0.2,0.1,0.8,0.1,1.3v6.9c-0.3,0.2-0.9,0.3-1.8,0.3s-1.5-0.1-1.9-0.3v-7.5c0-1.3-0.4-2.2-1.9-2.2 c-1.3,0-2,0.7-2.5,1.5V162.6z"></path> <g> <path class="st0" d="M203,24.4h-0.5c-0.5,3.5-1.8,8.5-2.8,11.5l-6.8,22.4c-0.9,0.4-2.2,0.6-4.2,0.6c-1.8,0-3.2-0.2-4.1-0.6 l-7.1-22.7c-0.9-2.7-2.2-8-2.5-11.2h-0.5v33.8c-0.8,0.5-2.1,0.6-3.9,0.6c-1.7,0-3-0.2-3.9-0.6V18.1c1.6-0.4,3.7-0.6,6.4-0.6 c2.9,0,5,0.2,6.5,0.6l6.6,21.2c1,3.1,2,7.5,2.4,11.3h0.5c0.5-3.9,1.4-8.3,2.2-11.2l6.3-21.3c1.5-0.4,3.6-0.6,6.5-0.6 c2.8,0,4.9,0.2,6.4,0.6v40.1c-0.8,0.5-2,0.6-3.9,0.6c-1.7,0-3.1-0.2-3.9-0.6V24.4z"></path> <path class="st0" d="M232.1,55.6c-1.3,2.5-4,4.1-7.9,4.1c-5.1,0-9.4-2.5-9.4-9.2c0-7,5.1-9.7,11.7-9.7c1.9,0,3.6,0.2,5.2,0.7v-0.8 c0-3.5-1.7-4.8-5.5-4.8c-3.3,0-6.6,0.9-9.2,2.4c-0.7-2.2-0.4-5.8,0.9-7.7c2.1-1.2,5.6-1.9,9.9-1.9c8.3,0,12.2,2.9,12.2,11.4v9.9 c0,1.8,0.8,2.2,2,2.2c1,0,1.9-0.3,2.5-0.7c0.2,2.3-0.5,5.1-1.5,6.7c-1.2,0.8-2.8,1.3-4.8,1.3c-3.3,0-5.1-1.4-5.6-4.1H232.1z M231.8,47.1c-1.2-0.5-2.4-0.7-3.8-0.7c-3.3,0-5,1.4-5,3.6c0,2.2,1.7,3,4,3c1.8,0,3.7-0.6,4.8-2V47.1z"></path> <path class="st0" d="M257.1,39.6l6.8-9.6c0.6-0.2,2-0.5,3.3-0.5c2.4,0,4.5,0.5,5.4,1.1l-8.7,12.1c2.9,5.1,6.2,10.2,10.2,15.3 c-0.8,0.5-2.6,0.7-4.5,0.7c-2.2,0-4.4-0.3-5.3-0.7c-2.8-3.7-5.1-7.2-7.4-11.6h-2.5v11.6c-0.7,0.4-2.1,0.7-4.1,0.7 c-2,0-3.4-0.3-4.2-0.7V17.3c2-1.1,4.7-1.7,8.3-1.7v24H257.1z"></path> <path class="st0" d="M281.5,46.9c0.3,4,3.2,6,8.9,6c3.7,0,6.9-0.8,9-1.7c0.2,2.2-0.7,5-2.1,6.5c-1.9,1.1-5.1,2-9.1,2 c-10.1,0-15.4-5.8-15.4-15.1c0-9.6,5.8-15.8,14.8-15.8c8.4,0,12.3,5.2,12.3,12.8c0,1.8-0.3,3.9-0.9,5.4H281.5z M292,40.9 c0.5-3-0.6-5.9-4.8-5.9c-3.6,0-5.8,2.3-6,5.9H292z"></path> <path class="st0" d="M318.6,28.8c1.1,0,2,0.2,2.7,0.5c0.8,1.4,1.2,3,1.2,5.2c0,1.7-0.2,2.7-0.5,3.5c-1.1-0.6-2.2-1-4-1 c-2.9,0-5.1,2-6.2,5v16c-0.7,0.4-2.1,0.7-4.1,0.7c-2,0-3.4-0.3-4.2-0.7V30.7c1.6-0.9,4-1.3,6.7-1.3l0.6,5.3h0.5 C312,31.5,313.9,28.8,318.6,28.8z"></path> <path class="st0" d="M332.1,53.3c2.9,0,4.1-0.9,4.1-2.6c0-4.5-13.1-2.3-13.1-12.5c0-5.9,3.7-9.3,10.7-9.3c2.9,0,5.9,0.6,8.2,2 c1,1.7,1.7,4.8,1.4,7.1c-2.6-1.6-5.8-2.6-8.6-2.6c-2.5,0-3.2,0.8-3.2,2.2c0,4.3,13.2,2.1,13.2,12.3c0,7.4-5.1,10.1-12.3,10.1 c-3,0-6.3-0.5-8.7-1.6c-1.2-2-1.7-5.5-1.3-7.4C324.7,52.2,328.9,53.3,332.1,53.3z"></path> <path class="st0" d="M393.4,24.4h-0.5c-0.5,3.5-1.8,8.5-2.8,11.5l-6.8,22.4c-0.9,0.4-2.2,0.6-4.2,0.6c-1.8,0-3.2-0.2-4.1-0.6 l-7.1-22.7c-0.9-2.7-2.2-8-2.5-11.2h-0.5v33.8c-0.8,0.5-2.1,0.6-3.9,0.6c-1.7,0-3-0.2-3.9-0.6V18.1c1.6-0.4,3.7-0.6,6.4-0.6 c2.9,0,5,0.2,6.5,0.6l6.6,21.2c1,3.1,2,7.5,2.4,11.3h0.5c0.5-3.9,1.4-8.3,2.2-11.2l6.3-21.3c1.5-0.4,3.6-0.6,6.5-0.6 c2.8,0,4.9,0.2,6.4,0.6v40.1c-0.8,0.5-2,0.6-3.9,0.6c-1.7,0-3.1-0.2-3.9-0.6V24.4z"></path> <path class="st0" d="M422.5,55.6c-1.3,2.5-4,4.1-7.9,4.1c-5.1,0-9.4-2.5-9.4-9.2c0-7,5.1-9.7,11.7-9.7c1.9,0,3.6,0.2,5.2,0.7v-0.8 c0-3.5-1.7-4.8-5.5-4.8c-3.3,0-6.6,0.9-9.2,2.4c-0.7-2.2-0.4-5.8,0.9-7.7c2.1-1.2,5.6-1.9,9.9-1.9c8.3,0,12.2,2.9,12.2,11.4v9.9 c0,1.8,0.8,2.2,2,2.2c1,0,1.9-0.3,2.5-0.7c0.2,2.3-0.5,5.1-1.5,6.7c-1.2,0.8-2.8,1.3-4.8,1.3c-3.3,0-5.1-1.4-5.6-4.1H422.5z M422.2,47.1c-1.2-0.5-2.4-0.7-3.8-0.7c-3.3,0-5,1.4-5,3.6c0,2.2,1.7,3,4,3c1.8,0,3.7-0.6,4.8-2V47.1z"></path> <path class="st0" d="M447.5,39.6l6.8-9.6c0.6-0.2,2-0.5,3.3-0.5c2.4,0,4.5,0.5,5.4,1.1l-8.7,12.1c2.9,5.1,6.2,10.2,10.2,15.3 c-0.8,0.5-2.6,0.7-4.5,0.7c-2.2,0-4.4-0.3-5.3-0.7c-2.8-3.7-5.1-7.2-7.4-11.6h-2.5v11.6c-0.7,0.4-2.1,0.7-4.1,0.7 c-2,0-3.4-0.3-4.2-0.7V17.3c2-1.1,4.7-1.7,8.3-1.7v24H447.5z"></path> <path class="st0" d="M475.5,20c0,3.4-2,5.2-5,5.2c-3.3,0-5.1-1.8-5.1-5.2c0-3.1,2.1-5,5.1-5C473.5,15,475.5,16.8,475.5,20z M466.3,30.4c0.8-0.4,2.2-0.7,4.2-0.7c2,0,3.4,0.3,4.1,0.7v27.7c-0.7,0.4-2.1,0.7-4.1,0.7c-2,0-3.4-0.3-4.2-0.7V30.4z"></path> <path class="st0" d="M488.4,58.1c-0.7,0.4-2.1,0.7-4.1,0.7c-2,0-3.4-0.3-4.2-0.7V30.7c1.6-0.9,4-1.3,6.8-1.3l0.5,4.7h0.5 c1.4-3,4.3-5.3,9.5-5.3c4.4,0,9.5,1.6,9.5,11v18.3c-0.7,0.4-2.1,0.7-4.1,0.7c-2,0-3.4-0.3-4.2-0.7V41.3c0-3-1-4.9-4.4-4.9 c-3,0-4.7,1.5-5.7,3.3V58.1z"></path> <path class="st0" d="M514.2,48c-2.7-1.7-3.7-4.9-3.7-8.5c0-7.1,5.2-10.8,12.5-10.8c2.6,0,4.7,0.5,6.4,1.1h8.3c0.7,1.7,1,4,1,6.1 h-4.1v0.3c0.5,0.5,0.9,1.9,0.9,3.6c0,6.6-4.7,10.4-12.2,10.4c-1.3,0-2.6-0.2-3.2-0.5c-0.6,0.4-1,1.2-1,1.9c0,1.6,2,2,5.8,2 c8.2,0,14.1,1.6,14.1,9.2c0,7.8-6,10.9-15.6,10.9c-8.7,0-14.3-2.5-14.3-9.2c0-3.5,1.8-5.9,4.4-6.6v-0.4c-1.6-0.8-2.4-2.4-2.4-4.3 c0-2.6,1.4-4.4,3.3-4.9V48z M518.5,59.8c-1.3,0.7-2,2-2,3.5c0,3.2,3.2,4,7.2,4c4.6,0,7.2-1.2,7.2-4c0-2.1-1.6-3-7.5-3 C521.2,60.3,519.8,60.2,518.5,59.8z M522.9,44.2c3.2,0,4.8-1.8,4.8-4.7c0-2.9-1.7-4.7-4.8-4.7c-3.2,0-4.8,1.8-4.8,4.7 C518.1,42.5,519.7,44.2,522.9,44.2z"></path> <path class="st0" d="M187.3,84.3c-8.1,0-13.7,4.1-13.7,14.1s5.5,14,13.3,14c3.6,0,7.2-0.9,9.7-2c0.1,2.1-0.9,5.8-2.3,7.6 c-2.5,1.2-6,2.1-10.1,2.1c-12.3,0-19.6-7.9-19.6-21.2c0-14.3,8.5-22.4,20.9-22.4c3.3,0,6.6,0.6,8.7,1.8c1.3,1.9,1.9,5.3,1.6,7.8 C193.1,85,190.6,84.3,187.3,84.3z"></path> <path class="st0" d="M208.5,118.4c-0.7,0.4-2.1,0.7-4.1,0.7c-2,0-3.4-0.3-4.2-0.7V77.7c2-1.1,4.7-1.7,8.3-1.7v8.7 c0,3.3-0.3,6.8-0.7,9.4h0.5c1.3-2.9,4-5.1,9.3-5.1c4.5,0,9.7,1.6,9.7,11v18.3c-0.7,0.4-2.1,0.7-4.1,0.7c-2,0-3.4-0.3-4.2-0.7 v-16.8c0-3-1.1-5-4.5-5c-3.1,0-4.8,1.6-5.9,3.4V118.4z"></path> <path class="st0" d="M247.4,115.9c-1.3,2.5-4,4.1-7.9,4.1c-5.1,0-9.4-2.5-9.4-9.2c0-7,5.1-9.7,11.7-9.7c1.9,0,3.6,0.2,5.2,0.7 v-0.8c0-3.5-1.7-4.8-5.5-4.8c-3.3,0-6.6,0.9-9.2,2.4c-0.7-2.2-0.4-5.8,0.9-7.7c2.1-1.2,5.6-1.9,9.9-1.9c8.3,0,12.2,2.9,12.2,11.4 v9.9c0,1.8,0.8,2.2,2,2.2c1,0,1.9-0.3,2.5-0.7c0.2,2.3-0.5,5.1-1.5,6.7c-1.2,0.8-2.8,1.3-4.8,1.3c-3.3,0-5.1-1.4-5.6-4.1H247.4z M247.2,107.4c-1.2-0.5-2.4-0.7-3.8-0.7c-3.3,0-5,1.4-5,3.6c0,2.2,1.7,3,4,3c1.8,0,3.7-0.6,4.8-2V107.4z"></path> <path class="st0" d="M269.8,118.4c-0.7,0.4-2.1,0.7-4.1,0.7c-2,0-3.4-0.3-4.2-0.7V91c1.6-0.9,4-1.3,6.8-1.3l0.5,4.7h0.5 c1.4-3,4.3-5.3,9.5-5.3c4.4,0,9.5,1.6,9.5,11v18.3c-0.7,0.4-2.1,0.7-4.1,0.7c-2,0-3.4-0.3-4.2-0.7v-16.8c0-3-1-4.9-4.4-4.9 c-3,0-4.7,1.5-5.7,3.3V118.4z"></path> <path class="st0" d="M295.7,108.3c-2.7-1.7-3.7-4.9-3.7-8.5c0-7.1,5.2-10.8,12.5-10.8c2.6,0,4.7,0.5,6.4,1.1h8.3 c0.7,1.7,1,4,1,6.1H316v0.3c0.5,0.5,0.9,1.9,0.9,3.6c0,6.6-4.7,10.4-12.2,10.4c-1.3,0-2.6-0.2-3.2-0.5c-0.6,0.4-1,1.2-1,1.9 c0,1.6,2,2,5.8,2c8.2,0,14.1,1.6,14.1,9.2c0,7.8-6,10.9-15.6,10.9c-8.7,0-14.3-2.5-14.3-9.2c0-3.5,1.8-5.9,4.4-6.6v-0.4 c-1.6-0.8-2.4-2.4-2.4-4.3c0-2.6,1.4-4.4,3.3-4.9V108.3z M300,120.2c-1.3,0.7-2,2-2,3.5c0,3.2,3.2,4,7.2,4c4.6,0,7.2-1.2,7.2-4 c0-2.1-1.6-3-7.5-3C302.7,120.7,301.3,120.6,300,120.2z M304.4,104.5c3.2,0,4.8-1.8,4.8-4.7c0-2.9-1.7-4.7-4.8-4.7 c-3.2,0-4.8,1.8-4.8,4.7C299.6,102.8,301.2,104.5,304.4,104.5z"></path> <path class="st0" d="M329.1,107.3c0.3,4,3.2,6,8.9,6c3.7,0,6.9-0.8,9-1.7c0.2,2.2-0.7,5-2.1,6.5c-1.9,1.1-5.1,2-9.1,2 c-10.1,0-15.4-5.8-15.4-15.1c0-9.6,5.8-15.8,14.8-15.8c8.4,0,12.3,5.2,12.3,12.8c0,1.8-0.3,3.9-0.9,5.4H329.1z M339.6,101.3 c0.5-3-0.6-5.9-4.8-5.9c-3.6,0-5.8,2.3-6,5.9H339.6z"></path> </g> </g> </svg> 